<svg width="220" height="200" viewBox="0 0 220 200" fill="none" xmlns="http://www.w3.org/2000/svg">
<rect width="220" height="200" fill="#1E1E1E"/>
<rect width="220" height="200" rx="8" transform="matrix(-1 0 0 1 220 0)" fill="#3D4B99"/>
<path d="M38 175C38 177.761 35.7614 180 33 180H21C18.2386 180 16 177.761 16 175V163C16 160.239 18.2386 158 21 158H33C35.7614 158 38 160.239 38 163V175Z" fill="#D9D9D9"/>
<path d="M38 138.5C38 141.261 35.7614 143.5 33 143.5H21C18.2386 143.5 16 141.261 16 138.5V126.5C16 123.739 18.2386 121.5 21 121.5H33C35.7614 121.5 38 123.739 38 126.5V138.5Z" fill="#D9D9D9"/>
<path d="M38 103C38 105.761 35.7614 108 33 108H21C18.2386 108 16 105.761 16 103V91C16 88.2386 18.2386 86 21 86H33C35.7614 86 38 88.2386 38 91V103Z" fill="#D9D9D9"/>
<path d="M38 69C38 71.7614 35.7614 74 33 74H21C18.2386 74 16 71.7614 16 69V57C16 54.2386 18.2386 52 21 52H33C35.7614 52 38 54.2386 38 57V69Z" fill="#D9D9D9"/>
<path d="M38 34C38 36.7614 35.7614 39 33 39H21C18.2386 39 16 36.7614 16 34V22C16 19.2386 18.2386 17 21 17H33C35.7614 17 38 19.2386 38 22V34Z" fill="#D9D9D9"/>
<path d="M203 175C203 177.761 200.761 180 198 180H186C183.239 180 181 177.761 181 175V163C181 160.239 183.239 158 186 158H198C200.761 158 203 160.239 203 163V175Z" fill="#D9D9D9"/>
<path d="M203 138.5C203 141.261 200.761 143.5 198 143.5H186C183.239 143.5 181 141.261 181 138.5V126.5C181 123.739 183.239 121.5 186 121.5H198C200.761 121.5 203 123.739 203 126.5V138.5Z" fill="#D9D9D9"/>
<path d="M203 103C203 105.761 200.761 108 198 108H186C183.239 108 181 105.761 181 103V91C181 88.2386 183.239 86 186 86H198C200.761 86 203 88.2386 203 91V103Z" fill="#D9D9D9"/>
<path d="M203 69C203 71.7614 200.761 74 198 74H186C183.239 74 181 71.7614 181 69V57C181 54.2386 183.239 52 186 52H198C200.761 52 203 54.2386 203 57V69Z" fill="#D9D9D9"/>
<path d="M203 34C203 36.7614 200.761 39 198 39H186C183.239 39 181 36.7614 181 34V22C181 19.2386 183.239 17 186 17H198C200.761 17 203 19.2386 203 22V34Z" fill="#D9D9D9"/>
<path d="M107.147 49.7811C108.045 47.0172 111.955 47.0172 112.853 49.7812L122.124 78.3131C122.525 79.5492 123.677 80.386 124.977 80.386H154.977C157.883 80.386 159.092 84.1049 156.741 85.8131L132.47 103.447C131.418 104.211 130.978 105.565 131.38 106.801L140.651 135.333C141.549 138.097 138.385 140.395 136.034 138.687L111.763 121.053C110.712 120.289 109.288 120.289 108.237 121.053L83.9659 138.687C81.6148 140.395 78.4514 138.097 79.3494 135.333L88.62 106.801C89.0216 105.565 88.5816 104.211 87.5302 103.447L63.2595 85.8131C60.9083 84.1049 62.1167 80.386 65.0228 80.386H95.0231C96.3228 80.386 97.4746 79.5492 97.8762 78.3131L107.147 49.7811Z" fill="#D9D9D9"/>
</svg>
